PathFileType	4	(X/Y/Z)	C:/Users/opensim2020/Desktop/walking_exp_matlab/subject06_walking11_run.trc	
DataRate	CameraRate	NumFrames	NumMarkers	Units	OrigDataRate	OrigDataStartFrame	OrigNumFrames	
100.00	100.00	4	46	mm	100.00	186	106	
Frame#	Time	LKNE			RKNE			RFRM			RWRA			RWRB			RELB			RUPA			RSHO			LWRA			RFIN			RFHD			CLAV			RASI			RTHI			LSHO			LTHI			RBHD			C7			LTIB			LANK			LTOE			LBHD			RTIB			RBAK			LHEE			RANK			STRN			RHEE			RTOE			T10			LUPA			LFHD			LPSI			RPSI			LASI			LFRM			LWRB			LFIN			LELB			*39			*40			*41			*42			*43			*44			*45			
		X1	Y1	Z1	X2	Y2	Z2	X3	Y3	Z3	X4	Y4	Z4	X5	Y5	Z5	X6	Y6	Z6	X7	Y7	Z7	X8	Y8	Z8	X9	Y9	Z9	X10	Y10	Z10	X11	Y11	Z11	X12	Y12	Z12	X13	Y13	Z13	X14	Y14	Z14	X15	Y15	Z15	X16	Y16	Z16	X17	Y17	Z17	X18	Y18	Z18	X19	Y19	Z19	X20	Y20	Z20	X21	Y21	Z21	X22	Y22	Z22	X23	Y23	Z23	X24	Y24	Z24	X25	Y25	Z25	X26	Y26	Z26	X27	Y27	Z27	X28	Y28	Z28	X29	Y29	Z29	X30	Y30	Z30	X31	Y31	Z31	X32	Y32	Z32	X33	Y33	Z33	X34	Y34	Z34	X35	Y35	Z35	X36	Y36	Z36	X37	Y37	Z37	X38	Y38	Z38	X39	Y39	Z39	X40	Y40	Z40	X41	Y41	Z41	X42	Y42	Z42	X43	Y43	Z43	X44	Y44	Z44	X45	Y45	Z45	X46	Y46	Z46	

1	0.000	96.82275	-2006.07166	471.43835	363.46954	-1582.35107	582.99432	496.24097	-1840.82617	1121.78687	409.18701	-1737.40161	1073.85083	449.27725	-1759.54053	1025.32446	517.09686	-1888.35205	1211.80774	473.42453	-1822.15515	1290.89136	367.18921	-1667.54993	1360.86218	97.01450	-1584.96179	1133.34363	425.89548	-1681.35022	1011.75391	288.39294	-1523.12524	1567.28052	222.15285	-1610.60669	1297.99792	321.96066	-1721.99158	918.06708	388.84106	-1658.80554	679.09210	59.23793	-1635.03333	1351.27722	66.74885	-1933.78723	619.12482	279.01385	-1661.98059	1547.52747	203.92384	-1694.58276	1403.96533	110.84885	-2198.92188	299.20636	153.48335	-2310.26416	178.00000	200.53395	-2280.25024	35.23360	149.77718	-1655.33264	1547.79871	361.68652	-1635.60706	329.60968	265.58078	-1819.19983	1272.62097	192.99138	-2340.48291	208.83948	318.54089	-1686.42139	149.10577	219.12621	-1634.66113	1116.99524	271.72006	-1729.08472	130.79765	325.23706	-1547.84265	85.20000	201.95520	-1835.59814	1106.85266	-42.41481	-1689.86475	1183.63489	156.69746	-1514.29126	1572.15759	133.06635	-1869.62634	972.20068	299.28149	-1863.18970	980.83569	109.92739	-1735.90906	889.66913	3.39608	-1635.62793	1060.97034	98.23331	-1567.70850	1065.03577	144.96115	-1508.55872	1114.99109	-77.39593	-1728.30090	1091.50623				208.44054	-1606.38403	1634.08459															 
2	0.010	96.27697	-1980.66260	483.30148	364.51477	-1549.56531	584.91888	496.15652	-1808.68372	1130.98865	409.54266	-1704.82751	1082.73401	449.78403	-1726.97571	1034.38477	517.04749	-1856.51794	1220.65417	473.58182	-1789.01465	1299.19104	367.91318	-1633.78809	1366.88489	99.11564	-1548.51514	1143.88525	425.98596	-1648.83325	1020.88623	291.56046	-1488.21521	1571.53186	224.16939	-1576.36340	1304.43445	321.95975	-1685.14136	925.39624	389.58987	-1626.47778	682.51721	62.15347	-1598.12634	1358.02673	66.45295	-1901.23926	627.55518	281.92984	-1627.24695	1553.10205	205.34113	-1659.44031	1410.22388	106.39941	-2166.35815	314.33511	150.35187	-2288.05469	185.93781	199.03336	-2273.00220	41.26613	152.71307	-1620.42908	1554.42981	362.27808	-1584.15991	325.92142	264.10962	-1782.65503	1280.27905	189.01733	-2310.64917	222.52019	317.55307	-1619.05212	142.20578	219.85426	-1600.37219	1123.35571	271.08234	-1661.00977	122.72890	319.06946	-1476.45068	82.59993	199.84193	-1798.95166	1112.84033	-41.56287	-1650.20386	1192.00879	159.96397	-1479.30981	1577.72168	130.88678	-1829.17273	976.55280	296.43008	-1824.90369	987.72253	111.02668	-1695.95129	894.56195	4.99081	-1596.39575	1070.60632	101.46569	-1530.32031	1075.98438	148.73038	-1472.70959	1127.52795	-77.91399	-1688.25757	1099.41418				212.30769	-1570.73389	1639.80225															 
3	0.020	96.41914	-1952.48352	493.69290	365.44339	-1516.76831	584.74841	496.27936	-1775.33447	1138.23389	409.61414	-1671.26587	1090.14709	449.86923	-1693.16650	1041.80518	517.36133	-1823.63025	1227.34192	474.08688	-1755.06555	1305.65332	368.49347	-1599.67566	1371.78296	101.15739	-1512.14453	1152.32446	425.44592	-1614.87671	1028.46533	294.51038	-1453.69678	1574.98975	225.68477	-1542.25378	1309.97412	323.02603	-1649.00562	931.49884	390.42853	-1594.87622	682.64661	64.95074	-1561.75916	1363.87512	66.02090	-1867.69775	635.26459	284.47296	-1592.83350	1557.38708	206.60211	-1624.74756	1415.30334	105.96384	-2145.53345	321.59695	145.05658	-2254.21436	199.23393	195.36891	-2254.12354	52.65697	155.22552	-1585.74475	1559.72913	362.93936	-1534.90662	321.87314	262.88910	-1746.55237	1287.25122	183.90512	-2279.14673	236.13623	316.89401	-1555.57227	136.40544	225.09267	-1559.03308	1129.58447	271.22787	-1597.24939	116.61994	312.47635	-1409.72449	79.81818	198.37117	-1762.00012	1118.49109	-40.70751	-1611.50537	1199.63452	162.88951	-1444.26563	1582.24268	128.93173	-1789.17078	980.22144	294.06595	-1787.39001	992.69409	112.13995	-1656.75098	899.20587	6.82703	-1558.27417	1078.24731	104.31264	-1493.89636	1084.55359	151.88266	-1437.68689	1136.95764	-78.29153	-1648.88928	1106.12683				215.69341	-1535.64990	1644.31287															 
4	0.030	96.95707	-1919.30530	500.62900	366.30875	-1484.05701	582.41833	496.57916	-1740.97083	1143.26318	409.58154	-1636.72815	1095.84863	449.76520	-1658.26965	1047.22375	518.18933	-1789.88672	1231.77661	474.92172	-1720.55920	1310.15173	369.07986	-1565.26672	1375.60339	103.31056	-1475.69861	1158.76123	424.80188	-1580.07922	1034.24646	297.13757	-1419.49951	1578.23706	226.91470	-1507.79822	1314.40308	324.29257	-1613.30920	935.69611	391.29181	-1563.44385	680.08569	67.38553	-1526.10022	1368.90747	64.46777	-1829.88245	643.14587	286.57498	-1558.65051	1560.90967	207.66959	-1590.53235	1419.04382	106.29522	-2113.72852	330.35587	143.66663	-2230.03931	209.25475	192.68871	-2231.21802	63.11903	157.36012	-1551.17773	1564.07861	363.85333	-1488.03125	317.26166	261.88861	-1710.89783	1293.05627	180.58789	-2249.65820	248.68640	316.54233	-1496.64600	131.31918	226.53903	-1522.43689	1134.07336	271.72781	-1538.27380	111.50357	305.80865	-1348.31982	76.93066	197.52083	-1724.85962	1123.68250	-39.88233	-1573.46533	1206.04810	165.41101	-1409.72241	1586.34070	127.53679	-1750.19543	983.90881	292.54886	-1750.68530	995.60419	113.27982	-1617.90356	903.11334	7.97310	-1520.66248	1083.98132	107.13863	-1458.24341	1090.79260	154.58646	-1402.71533	1143.60156	-78.83752	-1610.71228	1111.55981				218.54471	-1501.09033	1648.05603															 
